<svg xmlns="http://www.w3.org/2000/svg" xmlns:xlink="http://www.w3.org/1999/xlink" id="visual" viewBox="0 0 900 600" width="900" height="600" version="1.1"><rect x="0" y="0" width="900" height="600" fill="#001220"/><defs><linearGradient id="grad1_0" x1="33.3%" y1="100%" x2="100%" y2="0%"><stop offset="20%" stop-color="#297573" stop-opacity="1"/><stop offset="80%" stop-color="#297573" stop-opacity="1"/></linearGradient></defs><defs><linearGradient id="grad1_1" x1="33.3%" y1="100%" x2="100%" y2="0%"><stop offset="20%" stop-color="#297573" stop-opacity="1"/><stop offset="80%" stop-color="#1c666a" stop-opacity="1"/></linearGradient></defs><defs><linearGradient id="grad1_2" x1="33.3%" y1="100%" x2="100%" y2="0%"><stop offset="20%" stop-color="#115760" stop-opacity="1"/><stop offset="80%" stop-color="#1c666a" stop-opacity="1"/></linearGradient></defs><defs><linearGradient id="grad1_3" x1="33.3%" y1="100%" x2="100%" y2="0%"><stop offset="20%" stop-color="#115760" stop-opacity="1"/><stop offset="80%" stop-color="#0a4855" stop-opacity="1"/></linearGradient></defs><defs><linearGradient id="grad1_4" x1="33.3%" y1="100%" x2="100%" y2="0%"><stop offset="20%" stop-color="#063a48" stop-opacity="1"/><stop offset="80%" stop-color="#0a4855" stop-opacity="1"/></linearGradient></defs><defs><linearGradient id="grad1_5" x1="33.3%" y1="100%" x2="100%" y2="0%"><stop offset="20%" stop-color="#063a48" stop-opacity="1"/><stop offset="80%" stop-color="#052c3b" stop-opacity="1"/></linearGradient></defs><defs><linearGradient id="grad1_6" x1="33.3%" y1="100%" x2="100%" y2="0%"><stop offset="20%" stop-color="#041f2e" stop-opacity="1"/><stop offset="80%" stop-color="#052c3b" stop-opacity="1"/></linearGradient></defs><defs><linearGradient id="grad1_7" x1="33.3%" y1="100%" x2="100%" y2="0%"><stop offset="20%" stop-color="#041f2e" stop-opacity="1"/><stop offset="80%" stop-color="#001220" stop-opacity="1"/></linearGradient></defs><defs><linearGradient id="grad2_0" x1="0%" y1="100%" x2="66.7%" y2="0%"><stop offset="20%" stop-color="#297573" stop-opacity="1"/><stop offset="80%" stop-color="#297573" stop-opacity="1"/></linearGradient></defs><defs><linearGradient id="grad2_1" x1="0%" y1="100%" x2="66.7%" y2="0%"><stop offset="20%" stop-color="#1c666a" stop-opacity="1"/><stop offset="80%" stop-color="#297573" stop-opacity="1"/></linearGradient></defs><defs><linearGradient id="grad2_2" x1="0%" y1="100%" x2="66.7%" y2="0%"><stop offset="20%" stop-color="#1c666a" stop-opacity="1"/><stop offset="80%" stop-color="#115760" stop-opacity="1"/></linearGradient></defs><defs><linearGradient id="grad2_3" x1="0%" y1="100%" x2="66.7%" y2="0%"><stop offset="20%" stop-color="#0a4855" stop-opacity="1"/><stop offset="80%" stop-color="#115760" stop-opacity="1"/></linearGradient></defs><defs><linearGradient id="grad2_4" x1="0%" y1="100%" x2="66.7%" y2="0%"><stop offset="20%" stop-color="#0a4855" stop-opacity="1"/><stop offset="80%" stop-color="#063a48" stop-opacity="1"/></linearGradient></defs><defs><linearGradient id="grad2_5" x1="0%" y1="100%" x2="66.7%" y2="0%"><stop offset="20%" stop-color="#052c3b" stop-opacity="1"/><stop offset="80%" stop-color="#063a48" stop-opacity="1"/></linearGradient></defs><defs><linearGradient id="grad2_6" x1="0%" y1="100%" x2="66.7%" y2="0%"><stop offset="20%" stop-color="#052c3b" stop-opacity="1"/><stop offset="80%" stop-color="#041f2e" stop-opacity="1"/></linearGradient></defs><defs><linearGradient id="grad2_7" x1="0%" y1="100%" x2="66.7%" y2="0%"><stop offset="20%" stop-color="#001220" stop-opacity="1"/><stop offset="80%" stop-color="#041f2e" stop-opacity="1"/></linearGradient></defs><g transform="translate(900, 600)"><path d="M-351.5 0C-344.7 -44.7 -337.8 -89.5 -322.4 -133.6C-307.1 -177.6 -283.3 -221.1 -248.6 -248.6C-213.9 -276.1 -168.4 -287.6 -125.1 -302.1C-81.9 -316.6 -40.9 -334.1 0 -351.5L0 0Z" fill="#041927"/><path d="M-307.6 0C-301.6 -39.1 -295.6 -78.3 -282.1 -116.9C-268.7 -155.4 -247.8 -193.5 -217.5 -217.5C-187.2 -241.6 -147.3 -251.7 -109.5 -264.3C-71.7 -277 -35.8 -292.3 0 -307.6L0 0Z" fill="#052535"/><path d="M-263.7 0C-258.5 -33.6 -253.3 -67.1 -241.8 -100.2C-230.3 -133.2 -212.4 -165.8 -186.4 -186.4C-160.4 -207.1 -126.3 -215.7 -93.9 -226.6C-61.4 -237.5 -30.7 -250.6 0 -263.7L0 0Z" fill="#063342"/><path d="M-219.7 0C-215.4 -28 -211.1 -55.9 -201.5 -83.5C-191.9 -111 -177 -138.2 -155.4 -155.4C-133.7 -172.5 -105.2 -179.8 -78.2 -188.8C-51.2 -197.9 -25.6 -208.8 0 -219.7L0 0Z" fill="#08414f"/><path d="M-175.8 0C-172.3 -22.4 -168.9 -44.7 -161.2 -66.8C-153.5 -88.8 -141.6 -110.5 -124.3 -124.3C-107 -138 -84.2 -143.8 -62.6 -151.1C-40.9 -158.3 -20.5 -167 0 -175.8L0 0Z" fill="#0d4f5a"/><path d="M-131.8 0C-129.2 -16.8 -126.7 -33.6 -120.9 -50.1C-115.2 -66.6 -106.2 -82.9 -93.2 -93.2C-80.2 -103.5 -63.1 -107.9 -46.9 -113.3C-30.7 -118.7 -15.4 -125.3 0 -131.8L0 0Z" fill="#165e65"/><path d="M-87.9 0C-86.2 -11.2 -84.4 -22.4 -80.6 -33.4C-76.8 -44.4 -70.8 -55.3 -62.1 -62.1C-53.5 -69 -42.1 -71.9 -31.3 -75.5C-20.5 -79.2 -10.2 -83.5 0 -87.9L0 0Z" fill="#226d6f"/><path d="M-43.9 0C-43.1 -5.6 -42.2 -11.2 -40.3 -16.7C-38.4 -22.2 -35.4 -27.6 -31.1 -31.1C-26.7 -34.5 -21 -36 -15.6 -37.8C-10.2 -39.6 -5.1 -41.8 0 -43.9L0 0Z" fill="#297573"/></g><g transform="translate(0, 0)"><path d="M351.5 0C347.6 46.6 343.7 93.1 324.8 134.5C305.9 175.9 271.9 212.1 234.8 234.8C197.6 257.4 157.2 266.4 117.5 283.6C77.8 300.8 38.9 326.2 0 351.5L0 0Z" fill="#041927"/><path d="M307.6 0C304.2 40.7 300.7 81.5 284.2 117.7C267.6 153.9 237.9 185.6 205.4 205.4C172.9 225.2 137.5 233.1 102.8 248.2C68.1 263.2 34 285.4 0 307.6L0 0Z" fill="#052535"/><path d="M263.7 0C260.7 34.9 257.8 69.9 243.6 100.9C229.4 131.9 204 159.1 176.1 176.1C148.2 193 117.9 199.8 88.1 212.7C58.4 225.6 29.2 244.6 0 263.7L0 0Z" fill="#063342"/><path d="M219.7 0C217.3 29.1 214.8 58.2 203 84.1C191.2 109.9 170 132.6 146.7 146.7C123.5 160.9 98.2 166.5 73.4 177.3C48.6 188 24.3 203.9 0 219.7L0 0Z" fill="#08414f"/><path d="M175.8 0C173.8 23.3 171.9 46.6 162.4 67.3C152.9 88 136 106.1 117.4 117.4C98.8 128.7 78.6 133.2 58.7 141.8C38.9 150.4 19.5 163.1 0 175.8L0 0Z" fill="#0d4f5a"/><path d="M131.8 0C130.4 17.5 128.9 34.9 121.8 50.4C114.7 66 102 79.5 88 88C74.1 96.5 58.9 99.9 44.1 106.4C29.2 112.8 14.6 122.3 0 131.8L0 0Z" fill="#165e65"/><path d="M87.9 0C86.9 11.6 85.9 23.3 81.2 33.6C76.5 44 68 53 58.7 58.7C49.4 64.3 39.3 66.6 29.4 70.9C19.5 75.2 9.7 81.5 0 87.9L0 0Z" fill="#226d6f"/><path d="M43.9 0C43.5 5.8 43 11.6 40.6 16.8C38.2 22 34 26.5 29.3 29.3C24.7 32.2 19.6 33.3 14.7 35.5C9.7 37.6 4.9 40.8 0 43.9L0 0Z" fill="#297573"/></g></svg>